. 
  
http://www.torrenting.com/        :     Greatest Movie Tracker on The Net!!!
 
http://www.Torrenting.com          :     Once & For all ;)


               www . Torrenting . Com 

(((((((((((((= Enjoy No RAR releases =))))))))))))))))))))


...................................NFO:....................................

.                                                                                                     
       
     
     
       
       
     
     
                                         
                                         
                EXVID                    
                                         
         
                                         
         Filled the Archives             
                                         
         
                                         
                With:                    
                                         
         
                                         
                                    
     E240                           
                                    
     SP               (C) 2009      
                                         
     
     
     
                                                                                  
                                                                                   
                 Crazy.About.Ya.2010.DVDRip.XviD-EXViD                              
                                                                                   
                                                                                  
     
                                                                                               
EXViD aims to iNTERNAL those releases which have been lost in the archives.
EXViD aims to PRE non-internal releases which have poor sources and are likely skipped by others.
 
http://www.imdb.com/title/tt1538545/
Subtitles: EN, NL, FR
Date: 2011.04

Director: Jan Verheyen

Genres:
Comedy | Romance

Plot:
Anna breaks up with Bruno after he has cheated on her with their son Boriss schoolmarm. But her
far too young lover can only temporarily offer distraction... Arno and her best friend Lydias
marriage, on the other hand, looks like the perfect model marriage... But is it...? Between Alain
and Fred all is roses: they are going to get married... or is the party off after all? Astrid,
Alains sister, is sales assistant in a jewellery. Every day she hopes her Prince Charming will
show up. In the meantime, she fails to notice that Paul, the countrys most eligible bachelor,
is trying to catch her eye... And then, finally, there is Annette, who discovers her true self
and the love of her life during her search of a missing Santa Clause. Crazy about yA  is a
film about men, women, fathers, mothers, sons, daughters and love. For love is all around.
And we all want it so desperately. But love is like Santa Clause: you have to believe in it to
make it work...

Cast:
Credited cast:
Veerle Baetens 	... 	Anna Reynders 
Barbara Sarafian 	... 	Lydia Leekens 
Koen De Graeve 	... 	Bruno 
Sven De Ridder 	... 	Rudolf 
Kevin Janssens 	... 	Paul Boulat 
Joke Devynck 	... 	Annette 
Kurt Rogiers 	... 	Yoeri 
Herwig Ilegems 	... 	Jules 
Tania Kloek 	... 	Carolien 
Mathias Sercu 	... 	Arno Leekens 
Mike Verdrengh 	... 	Tv-baas 
Matteo Simoni 	... 	Lucas 
Jan Van Looveren 	... 	Alain Gevaert 
Peter Bulckaen 	... 	Cafbaas 
Michel van Dousselaere 	... 	Jean Collier

Stats:
Format                           : AVI
Format/Info                      : Audio Video Interleave
File size                        : 1.37 GiB
Duration                         : 1h 59mn
Overall bit rate                 : 1 632 Kbps
Writing application              : Nandub v1.0rc2
Writing library                  : Nandub build 1852/release

Video
ID                               : 0
Format                           : MPEG-4 Visual
Format profile                   : Advanced Simple@L5
Format settings, BVOP            : Yes
Format settings, QPel            : No
Format settings, GMC             : No warppoints
Format settings, Matrix          : Default (H.263)
Muxing mode                      : Packed bitstream
Codec ID                         : XVID
Codec ID/Hint                    : XviD
Duration                         : 1h 59mn
Bit rate                         : 1 175 Kbps
Width                            : 640 pixels
Height                           : 272 pixels
Display aspect ratio             : 2.35:1
Frame rate                       : 25.000 fps
Color space                      : YUV
Chroma subsampling               : 4:2:0
Bit depth                        : 8 bits
Scan type                        : Progressive
Bits/(Pixel*Frame)               : 0.270
Stream size                      : 1 007 MiB (72%)
Writing library                  : XviD 62

Audio
ID                               : 1
Format                           : AC-3
Format/Info                      : Audio Coding 3
Mode extension                   : CM (complete main)
Codec ID                         : 2000
Duration                         : 1h 59mn
Bit rate mode                    : Constant
Bit rate                         : 448 Kbps
Channel(s)                       : 6 channels
Channel positions                : Front: L C R, Side: L R, LFE
Sampling rate                    : 48.0 KHz
Bit depth                        : 16 bits
Video delay                      : 140ms
Stream size                      : 384 MiB (27%)
Alignment                        : Split accross interleaves
Interleave, duration             : 40 ms (1.00 video frame)
Interleave, preload duration     : 500 ms




Release notes:
Flemish remake of the Dutch movie "Alles Is Liefde" (Love Is All).

English .srt subs included to fit on discs.

enjoy!

Looking for:
75TB+ Archives
DUTCH/FLEMiSH Archives
                                                                                                    
Greets: CRBS EPiSODE FiCO FLS iLS KLASSiGER LiPSYNC MADE NODLABS RUNNER SPRiNTER      
   

                                                                    ASCII DONE BY XX^NFO 2oo9